<svg xmlns="http://www.w3.org/2000/svg" version="1.1" xmlns:xlink="http://www.w3.org/1999/xlink" xmlns:svgjs="http://svgjs.dev/svgjs" width="2000" height="621" viewBox="0 0 2000 621"><g transform="matrix(1,0,0,1,4.62464252142604,-15.337012804745939)"><svg viewBox="0 0 396 123" data-background-color="#ffffff" preserveAspectRatio="xMidYMid meet" height="621" width="2000" xmlns="http://www.w3.org/2000/svg" xmlns:xlink="http://www.w3.org/1999/xlink"><g id="tight-bounds" transform="matrix(1,0,0,1,0.24036625066514716,3.0377658212298684)"><svg viewBox="0 0 395.52 116.34637177477565" height="116.34637177477565" width="395.52"><g><svg viewBox="0 0 627.4669197361892 184.57599999999996" height="116.34637177477565" width="395.52"><g><rect width="7.57140203550567" height="184.57599999999996" x="204.55509352396717" y="0" fill="#facc15" opacity="1" stroke-width="0" stroke="transparent" fill-opacity="1" class="rect-nn-0" data-fill-palette-color="primary" rx="1%" id="nn-0" data-palette-color="#facc15"></rect></g><g transform="matrix(1,0,0,1,231.94691973618927,0.4591442786069564)"><svg viewBox="0 0 395.5199999999999 183.65771144278605" height="183.65771144278605" width="395.5199999999999"><g><svg viewBox="0 0 395.5199999999999 183.65771144278605" height="183.65771144278605" width="395.5199999999999"><g><svg viewBox="0 0 395.5199999999999 183.65771144278605" height="183.65771144278605" width="395.5199999999999"><g transform="matrix(1,0,0,1,0,0)"><svg width="395.5199999999999" viewBox="0.55 -31.9 153.8 67" height="183.65771144278605" data-palette-color="#facc15"><svg></svg><svg></svg><g class="undefined-text-0" data-fill-palette-color="primary" id="text-0"><path d="M0.55-29.15c0-1.433 1.05-2.15 3.15-2.15v0c0.9 0 2.617 0.033 5.15 0.1v0c2.8 0.133 4.917 0.2 6.35 0.2v0c1.167 0 2.583-0.067 4.25-0.2v0c1.133-0.067 1.85-0.1 2.15-0.1v0c1.833 0.067 3.383 0.4 4.65 1v0c0.367 0.167 0.667 0.367 0.9 0.6 0.233 0.233 0.35 0.617 0.35 1.15v0c0 0.733-0.233 1.357-0.7 1.87-0.467 0.52-1.033 0.78-1.7 0.78v0c-0.733 0-1.8-0.1-3.2-0.3v0c-1.233-0.233-2.317-0.35-3.25-0.35v0c-0.9 0-1.583 0.017-2.05 0.05v0c-0.1 1.1-0.15 3.733-0.15 7.9v0c0 4.967 0.15 10 0.45 15.1v0l0.1 1.45c0 1.367-0.783 2.05-2.35 2.05v0c-1.233 0-2.067-0.293-2.5-0.88-0.433-0.58-0.65-1.47-0.65-2.67v0c0-2.367-0.067-5.317-0.2-8.85v0c-0.133-2.933-0.2-5.017-0.2-6.25v0c0-0.833 0.1-3.383 0.3-7.65v0l-5.85 0.05c-1.867 0-3.167-0.177-3.9-0.53-0.733-0.347-1.1-1.137-1.1-2.37zM52.15-6.8c0.633 0 1.11 0.24 1.43 0.72 0.313 0.487 0.47 1.013 0.47 1.58v0c0 0.7-0.107 1.19-0.32 1.47-0.22 0.287-0.63 0.58-1.23 0.88v0c-1.4 0.667-3.133 1.2-5.2 1.6-2.067 0.4-4.283 0.6-6.65 0.6v0c-2.967 0-5.14-0.5-6.52-1.5-1.387-1-2.237-2.21-2.55-3.63-0.32-1.413-0.48-3.27-0.48-5.57v0c0-2.467 0.1-4.893 0.3-7.28 0.2-2.38 0.55-5.42 1.05-9.12v0c0.233-1.6 0.867-2.76 1.9-3.48 1.033-0.713 2.167-1.07 3.4-1.07v0c1.033 0 2.717-0.033 5.05-0.1v0l4.35-0.05c1.8 0 3.1 0.05 3.9 0.15v0c1 0.2 1.743 0.423 2.23 0.67 0.48 0.253 0.72 0.68 0.72 1.28v0c0 0.667-0.223 1.317-0.67 1.95-0.453 0.633-1.13 0.95-2.03 0.95v0c-1.033 0-2.517-0.067-4.45-0.2v0c-1.933-0.133-3.383-0.2-4.35-0.2v0c-0.833 0-1.65 0.05-2.45 0.15v0c-0.933 0.067-1.6 0.183-2 0.35-0.4 0.167-0.633 0.45-0.7 0.85v0c-0.467 3.433-0.7 5.967-0.7 7.6v0c0.767 0.1 1.517 0.15 2.25 0.15v0c0.933 0 1.933-0.05 3-0.15 1.067-0.1 1.75-0.167 2.05-0.2v0c1.767-0.167 3.283-0.25 4.55-0.25v0c0.733 0 1.29 0.133 1.67 0.4 0.387 0.267 0.58 0.633 0.58 1.1v0c0 0.733-0.193 1.3-0.58 1.7-0.38 0.4-1.053 0.7-2.02 0.9v0c-1.167 0.233-2.607 0.417-4.32 0.55-1.72 0.133-3.397 0.2-5.03 0.2v0c-0.567 0-1.35-0.033-2.35-0.1v0c-0.1 2.033-0.15 3.917-0.15 5.65v0c0 2.367 1.567 3.55 4.7 3.55v0c1.667 0 3.05-0.117 4.15-0.35 1.1-0.233 2.367-0.567 3.8-1v0c1.333-0.5 2.4-0.75 3.2-0.75zM83.65-27.75c0.5 0.6 0.85 1.083 1.05 1.45 0.2 0.367 0.3 0.717 0.3 1.05v0c0 0.4-0.257 0.867-0.77 1.4-0.52 0.533-1.03 0.8-1.53 0.8v0c-0.667 0-1.2-0.1-1.6-0.3-0.4-0.2-0.733-0.517-1-0.95v0c-0.533-0.8-1.183-1.493-1.95-2.08-0.767-0.58-1.967-0.87-3.6-0.87v0c-1.4 0-2.99 0.317-4.77 0.95-1.787 0.633-3.063 1.417-3.83 2.35v0c-0.667 0.833-1.24 2.1-1.72 3.8-0.487 1.7-0.73 3.35-0.73 4.95v0c0 1.933 0.427 3.707 1.28 5.32 0.847 1.62 2.08 2.913 3.7 3.88 1.613 0.967 3.553 1.45 5.82 1.45v0c1.233 0 2.51-0.243 3.83-0.73 1.313-0.48 2.453-1.27 3.42-2.37v0h-0.05c0.6-0.633 1.35-0.95 2.25-0.95v0c0.533 0 1.043 0.233 1.53 0.7 0.48 0.467 0.72 0.933 0.72 1.4v0c0 0.5-0.073 0.94-0.22 1.32-0.153 0.387-0.43 0.813-0.83 1.28v0c-1.367 1.533-2.983 2.583-4.85 3.15-1.867 0.567-4.1 0.85-6.7 0.85v0c-2.3 0-4.623-0.55-6.97-1.65-2.353-1.1-4.163-2.433-5.43-4v0c-0.667-0.967-1.307-2.36-1.92-4.18-0.62-1.813-0.93-3.287-0.93-4.42v0c0-2.9 0.443-5.66 1.33-8.28 0.88-2.613 2.203-4.703 3.97-6.27v0c1.167-1.067 2.85-1.867 5.05-2.4 2.2-0.533 4.217-0.8 6.05-0.8v0c2.233 0 3.993 0.307 5.28 0.92 1.28 0.62 2.553 1.697 3.82 3.23zM113.45-17.9c-0.033-0.533-0.05-1.333-0.05-2.4v0-1.9c0-1.267-0.033-2.217-0.1-2.85v0c-0.067-0.533-0.1-1.917-0.1-4.15v0c0-0.8 0.243-1.427 0.73-1.88 0.48-0.447 1.137-0.67 1.97-0.67v0c1.067 0 1.783 0.233 2.15 0.7 0.367 0.467 0.55 1.233 0.55 2.3v0 1.9l-0.05 5.5c-0.033 1.067-0.05 2.667-0.05 4.8v0l0.05 4.1c0.033 0.633 0.05 1.517 0.05 2.65v0c0 0.9 0.033 2.183 0.1 3.85v0c0.067 1.533 0.1 2.683 0.1 3.45v0c0 0.633-0.173 1.217-0.52 1.75-0.353 0.533-0.83 0.8-1.43 0.8v0c-2.333 0-3.5-0.783-3.5-2.35v0c0-0.867 0.033-1.833 0.1-2.9v0c0.067-0.767 0.1-1.933 0.1-3.5v0c0-1.1-0.033-2.683-0.1-4.75v0c-1.567 0.133-4.267 0.2-8.1 0.2v0c-2.4 0-4.267-0.01-5.6-0.03-1.333-0.013-2.3-0.087-2.9-0.22v0l-0.05 5.75c0 0.367 0.083 1.35 0.25 2.95v0c0.167 1.067 0.25 2 0.25 2.8v0c0 0.5-0.29 0.973-0.87 1.42-0.587 0.453-1.13 0.68-1.63 0.68v0c-1.2 0-2.017-0.293-2.45-0.88-0.433-0.58-0.65-1.47-0.65-2.67v0l-0.05-3.95c-0.033-0.467-0.05-1.117-0.05-1.95v0c0-1.233-0.033-2.917-0.1-5.05v0c-0.067-1.933-0.1-3.333-0.1-4.2v0c0-1.3 0.033-3.117 0.1-5.45v0c0.067-2.2 0.1-3.833 0.1-4.9v0c0-1.067 0.267-1.783 0.8-2.15 0.533-0.367 1.133-0.55 1.8-0.55v0c1.867 0 2.8 0.617 2.8 1.85v0c0 2.2-0.05 4.3-0.15 6.3v0c-0.067 2.533-0.1 4.383-0.1 5.55v0c0.967 0.233 1.983 0.383 3.05 0.45 1.067 0.067 2.567 0.1 4.5 0.1v0c3.933 0 6.983-0.167 9.15-0.5z" fill="#facc15" fill-rule="nonzero" stroke="none" stroke-width="1" stroke-linecap="butt" stroke-linejoin="miter" stroke-miterlimit="10" stroke-dasharray="" stroke-dashoffset="0" font-family="none" font-weight="none" font-size="none" text-anchor="none" style="mix-blend-mode: normal" data-fill-palette-color="primary" opacity="1"></path><path transform="translate(0,35)" d="M23.15-16.9c2.433 0.3 4.243 1.073 5.43 2.32 1.18 1.253 1.77 2.797 1.77 4.63v0c0 1.833-0.673 3.567-2.02 5.2-1.353 1.633-3.08 2.9-5.18 3.8v0c-0.933 0.367-2.157 0.633-3.67 0.8-1.52 0.167-3.08 0.25-4.68 0.25v0c-2.667 0-5.4-0.25-8.2-0.75v0c-0.5-0.1-1.023-0.35-1.57-0.75-0.553-0.4-0.83-0.983-0.83-1.75v0c-0.033-3.067-0.15-7.333-0.35-12.8v0l-0.05-2.75c-0.133-4.267-0.2-7.617-0.2-10.05v0c0-0.433 0.26-0.943 0.78-1.53 0.513-0.58 1.137-0.903 1.87-0.97v0c0.433 0 0.85-0.017 1.25-0.05v0c3.767-0.367 6.283-0.55 7.55-0.55v0c2.5 0 4.71 0.24 6.63 0.72 1.913 0.487 3.503 1.363 4.77 2.63v0c0.467 0.533 0.85 1.207 1.15 2.02 0.3 0.82 0.45 1.613 0.45 2.38v0c0.033 1.633-0.39 3.133-1.27 4.5-0.887 1.367-2.097 2.267-3.63 2.7zM15.35-27.6c-1.133 0-2.307 0.067-3.52 0.2-1.22 0.133-2.247 0.3-3.08 0.5v0l0.3 9.45 1.8-0.05c2.9-0.3 5.033-0.55 6.4-0.75v0c0.867-0.2 1.717-0.593 2.55-1.18 0.833-0.58 1.527-1.197 2.08-1.85 0.547-0.647 0.82-1.137 0.82-1.47v0c0-0.5-0.1-1.01-0.3-1.53-0.2-0.513-0.417-0.887-0.65-1.12v0c-0.9-0.867-1.817-1.45-2.75-1.75-0.933-0.3-2.15-0.45-3.65-0.45zM9.2-4.3c1.7 0.233 3.317 0.35 4.85 0.35v0c3.367 0 6.027-0.443 7.98-1.33 1.947-0.88 2.92-2.57 2.92-5.07v0c0-1-0.75-1.833-2.25-2.5-1.5-0.667-3.117-1-4.85-1v0c-1.167 0-2.65 0.133-4.45 0.4v0c-1.433 0.2-2.833 0.333-4.2 0.4v0c0.067 2 0.1 3.267 0.1 3.8v0c0 1.033-0.017 1.817-0.05 2.35v0zM38.45-31.75c0.633 0 1.21 0.167 1.73 0.5 0.513 0.333 0.82 0.917 0.92 1.75v0c0.4 2.633 0.66 5.257 0.78 7.87 0.113 2.62 0.17 5.58 0.17 8.88v0c0 1.4-0.117 3.95-0.35 7.65v0c1.467 0.133 2.6 0.2 3.4 0.2v0c0.567 0 1.85-0.083 3.85-0.25v0c1.167-0.167 2.183-0.25 3.05-0.25v0c0.8 0 1.533 0.073 2.2 0.22 0.667 0.153 1.35 0.397 2.05 0.73v0c0.7 0.4 1.05 1.017 1.05 1.85v0c0 0.667-0.207 1.267-0.62 1.8-0.42 0.533-0.913 0.8-1.48 0.8v0c-0.4 0-1.033-0.067-1.9-0.2v0c-1.567-0.233-3.067-0.35-4.5-0.35v0c-0.467 0-0.99 0.023-1.57 0.07-0.587 0.053-1.013 0.08-1.28 0.08v0c-0.8 0.1-1.6 0.15-2.4 0.15v0c-1.633 0-3.1-0.083-4.4-0.25v0c-0.667-0.067-1.333-0.327-2-0.78-0.667-0.447-1-1.103-1-1.97v0c0-0.5 0.067-1.783 0.2-3.85v0c0.233-3.433 0.35-6.05 0.35-7.85v0c0-1.4-0.067-2.867-0.2-4.4-0.133-1.533-0.217-2.5-0.25-2.9v0c-0.3-2.833-0.45-5.167-0.45-7v0c0-0.867 0.21-1.5 0.63-1.9 0.413-0.4 1.087-0.6 2.02-0.6zM74.9-31.8c2.233 0 4.267 0.273 6.1 0.82 1.833 0.553 3.333 1.363 4.5 2.43v0c2.1 1.9 3.577 3.973 4.43 6.22 0.847 2.253 1.27 5.13 1.27 8.63v0c0 0.733-0.09 1.4-0.27 2-0.187 0.6-0.48 1.367-0.88 2.3v0c-0.5 1.033-0.8 1.85-0.9 2.45v0c-0.667 1.167-1.757 2.283-3.27 3.35-1.52 1.067-3.163 1.933-4.93 2.6-1.767 0.667-3.317 1-4.65 1v0c-6.433 0-11.017-2.2-13.75-6.6v0c-0.767-1.233-1.357-2.517-1.77-3.85-0.42-1.333-0.63-2.633-0.63-3.9v0c0-3.4 0.61-6.36 1.83-8.88 1.213-2.513 2.903-4.47 5.07-5.87v0c1.3-0.767 2.66-1.41 4.08-1.93 1.413-0.513 2.67-0.77 3.77-0.77zM65.35-14.2c0 1.8 0.41 3.283 1.23 4.45 0.813 1.167 2.07 2.433 3.77 3.8v0c1.4 0.533 2.35 0.873 2.85 1.02 0.5 0.153 1.067 0.23 1.7 0.23v0c3.367 0 6.05-0.917 8.05-2.75 2-1.833 3-4.35 3-7.55v0c0-2.533-0.283-4.533-0.85-6-0.567-1.467-1.583-2.783-3.05-3.95v0c-0.767-0.633-1.74-1.1-2.92-1.4-1.187-0.3-2.463-0.45-3.83-0.45v0c-2.067 0-3.85 0.607-5.35 1.82-1.5 1.22-2.64 2.797-3.42 4.73-0.787 1.933-1.18 3.95-1.18 6.05zM120.35-24.05c-1.433-1.033-2.667-1.793-3.7-2.28-1.033-0.48-2.233-0.72-3.6-0.72v0c-2.733 0-5.083 0.7-7.05 2.1v0c-1.5 1.1-2.617 2.533-3.35 4.3-0.733 1.767-1.1 3.75-1.1 5.95v0c0 2.1 0.483 3.94 1.45 5.52 0.967 1.587 2.217 2.797 3.75 3.63 1.533 0.833 3.133 1.25 4.8 1.25v0c1.667 0 3.11-0.26 4.33-0.78 1.213-0.513 2.187-1.187 2.92-2.02v0c1.133-1.433 1.7-3.333 1.7-5.7v0c0-0.333-0.267-0.567-0.8-0.7-0.533-0.133-1.3-0.2-2.3-0.2v0l-3.6 0.05c-0.967 0-1.733-0.183-2.3-0.55-0.567-0.367-0.85-0.833-0.85-1.4v0c0-0.8 0.267-1.393 0.8-1.78 0.533-0.38 1.25-0.57 2.15-0.57v0c1.067 0 2.5 0.067 4.3 0.2v0c1.8 0.133 3.1 0.2 3.9 0.2v0c1.167 0 2.11 0.367 2.83 1.1 0.713 0.733 1.07 1.8 1.07 3.2v0c0 1.3-0.283 2.817-0.85 4.55-0.567 1.733-1.367 3.283-2.4 4.65v0c-1 1.333-2.473 2.34-4.42 3.02-1.953 0.687-4.113 1.03-6.48 1.03v0c-1.967 0-3.867-0.317-5.7-0.95-1.833-0.633-3.367-1.517-4.6-2.65v0c-1.533-1.433-2.74-3.14-3.62-5.12-0.887-1.987-1.33-3.963-1.33-5.93v0c0-2.867 0.677-5.66 2.03-8.38 1.347-2.713 3.17-4.82 5.47-6.32v0c1-0.667 2.4-1.217 4.2-1.65 1.8-0.433 3.45-0.65 4.95-0.65v0c2.333 0 4.383 0.357 6.15 1.07 1.767 0.72 3.117 1.747 4.05 3.08v0c0.4 0.6 0.6 1.133 0.6 1.6v0c0 0.533-0.233 1.033-0.7 1.5-0.467 0.467-0.933 0.7-1.4 0.7v0c-0.2 0-0.433-0.033-0.7-0.1-0.267-0.067-0.467-0.15-0.6-0.25zM154.35-9.05c0 1.567-0.357 2.907-1.07 4.02-0.72 1.12-1.897 2.147-3.53 3.08v0c-1.1 0.667-2.383 1.167-3.85 1.5-1.467 0.333-2.95 0.5-4.45 0.5v0c-1.533 0-3.433-0.5-5.7-1.5v0c-1.633-0.8-2.923-1.75-3.87-2.85-0.953-1.1-1.43-2.3-1.43-3.6v0c0-0.9 0.2-1.56 0.6-1.98 0.4-0.413 1.05-0.62 1.95-0.62v0c0.467 0 0.95 0.19 1.45 0.57 0.5 0.387 0.8 0.763 0.9 1.13v0c0.467 1.367 1.283 2.407 2.45 3.12 1.167 0.72 2.617 1.08 4.35 1.08v0c2 0 3.677-0.367 5.03-1.1 1.347-0.733 2.02-1.717 2.02-2.95v0c0-1.2-0.733-2.267-2.2-3.2-1.467-0.933-2.967-1.583-4.5-1.95v0c-2.2-0.6-4.15-1.317-5.85-2.15v0c-1.767-0.867-3.083-1.933-3.95-3.2-0.867-1.267-1.3-2.6-1.3-4v0c0-1.3 0.45-2.627 1.35-3.98 0.9-1.347 1.967-2.32 3.2-2.92v0c0.667-0.333 1.81-0.693 3.43-1.08 1.613-0.38 2.787-0.57 3.52-0.57v0c0.967 0 2.033 0.117 3.2 0.35 1.167 0.233 2.117 0.567 2.85 1v0c1.467 0.833 2.55 1.583 3.25 2.25 0.7 0.667 1.05 1.5 1.05 2.5v0c0 0.6-0.223 1.133-0.67 1.6-0.453 0.467-1.23 0.7-2.33 0.7v0c-0.267 0-0.533-0.117-0.8-0.35-0.267-0.233-0.6-0.583-1-1.05v0c-0.533-0.7-1.05-1.167-1.55-1.4v0c-0.5-0.167-1.223-0.35-2.17-0.55-0.953-0.2-1.797-0.3-2.53-0.3v0c-0.8 0-1.633 0.167-2.5 0.5-0.867 0.333-1.59 0.807-2.17 1.42-0.587 0.62-0.88 1.33-0.88 2.13v0c0 0.667 0.31 1.24 0.93 1.72 0.613 0.487 1.353 0.88 2.22 1.18v0c1 0.4 2.083 0.75 3.25 1.05v0c1.533 0.467 2.793 0.89 3.78 1.27 0.98 0.387 1.937 0.863 2.87 1.43v0c1.633 0.967 2.817 1.957 3.55 2.97 0.733 1.02 1.1 2.43 1.1 4.23z" fill="#facc15" fill-rule="nonzero" stroke="none" stroke-width="1" stroke-linecap="butt" stroke-linejoin="miter" stroke-miterlimit="10" stroke-dasharray="" stroke-dashoffset="0" font-family="none" font-weight="none" font-size="none" text-anchor="none" style="mix-blend-mode: normal" data-fill-palette-color="primary" opacity="1"></path></g></svg></g></svg></g></svg></g></svg></g><g transform="matrix(1,0,0,1,0,0.4591442786069564)"><svg viewBox="0 0 184.73466934725076 183.65771144278605" height="183.65771144278605" width="184.73466934725076"><g><svg xmlns="http://www.w3.org/2000/svg" viewBox="20 20.173631984616488 60.018743579525974 59.668848995350714" x="0" y="0" height="183.65771144278605" width="184.73466934725076" class="icon-icon-0" data-fill-palette-color="accent" id="icon-0"><g data-name="Calque 2" fill="#facc15" data-fill-palette-color="accent"><path d="M23.82 23.07A1.82 1.82 0 1 1 22 24.88 1.82 1.82 0 0 1 23.82 23.07Zm0 5.58a3.73 3.73 0 0 0 2-0.56c2.07 1.44 9.08 6.45 10.21 7.14a6.25 6.25 0 0 0 3.19 1.25c0.63 0 2 0.06 4.13 0.06A2.75 2.75 0 0 0 45.8 38a2.76 2.76 0 1 0-2.69-3.32c-1.94 0-3.26 0-3.82-0.06A3.81 3.81 0 0 1 37 33.71c-1-0.63-7.64-5.39-9.9-7A4 4 0 0 0 27.57 25a3.7 3.7 0 0 0-3.7-3.7 3.74 3.74 0 0 0-3.7 3.7A3.6 3.6 0 0 0 23.82 28.64Z" fill="#facc15" data-fill-palette-color="accent"></path><path d="M22.13 44.61a1.82 1.82 0 1 1 1.82 1.82A1.78 1.78 0 0 1 22.13 44.61Zm5.39 0.94H33a2.71 2.71 0 0 0 2.57 1.82 2.76 2.76 0 0 0 0-5.51A2.71 2.71 0 0 0 33 43.67H27.52a3.76 3.76 0 0 0-3.57-2.76 3.7 3.7 0 0 0-3.7 3.7 3.74 3.74 0 0 0 3.7 3.7A3.52 3.52 0 0 0 27.52 45.55Z" fill="#facc15" data-fill-palette-color="accent"></path><path d="M28.33 49.87a1.82 1.82 0 1 1-1.82 1.82A1.82 1.82 0 0 1 28.33 49.87Zm0 5.58a3.7 3.7 0 0 0 3.57-2.76H33a2.72 2.72 0 0 0 2.57 1.82 2.76 2.76 0 0 0 0-5.51A2.71 2.71 0 0 0 33 50.81H31.9a3.76 3.76 0 0 0-3.57-2.76 3.7 3.7 0 0 0 0 7.39Z" fill="#facc15" data-fill-palette-color="accent"></path><path d="M23.7 75.24a1.82 1.82 0 1 1 1.82-1.82A1.78 1.78 0 0 1 23.7 75.24Zm1.06-5.39V63.4c0-2.94 1-3.57 2.69-3.57 2.07 0 4.38 0 5.39 0.06a2.73 2.73 0 0 0 2.63 1.82 2.76 2.76 0 1 0 0-5.51A2.71 2.71 0 0 0 32.9 58c-1.06 0-3.38-0.06-5.39-0.06-4.64 0-4.64 4.07-4.64 5.45v6.39A3.76 3.76 0 0 0 20 73.42a3.7 3.7 0 0 0 3.7 3.7 3.74 3.74 0 0 0 3.7-3.7A3.58 3.58 0 0 0 24.76 69.86Z" fill="#facc15" data-fill-palette-color="accent"></path><path d="M75.06 75.24a1.82 1.82 0 1 1 1.82-1.82A1.82 1.82 0 0 1 75.06 75.24Zm0.81-5.45V63.4c0-1.31 0-5.45-4.57-5.45-2.07 0-4.38 0-5.39 0.06a2.71 2.71 0 0 0-2.57-1.82 2.76 2.76 0 1 0 0 5.51A2.85 2.85 0 0 0 66 59.9c1.06 0 3.38-0.06 5.39-0.06C73 59.83 74 60.4 74 63.4v6.45a3.7 3.7 0 0 0 1 7.26 3.71 3.71 0 0 0 0.82-7.33Z" fill="#facc15" data-fill-palette-color="accent"></path><path d="M72.42 23.69A1.57 1.57 0 1 1 74 25.26 1.59 1.59 0 0 1 72.42 23.69ZM63.59 47.37A2.76 2.76 0 0 0 66 45.86h4.57c4.26 0 4.26-3.76 4.26-5V27a3.46 3.46 0 1 0-4.26-3.38A3.44 3.44 0 0 0 73.05 27v13.9c0 2.63-0.82 3.13-2.38 3.13H66.35a2.75 2.75 0 0 0-5.45 0.56A2.63 2.63 0 0 0 63.59 47.37Z" fill="#facc15" data-fill-palette-color="accent"></path><path d="M76.37 50.13a1.82 1.82 0 1 1-1.82 1.82A1.78 1.78 0 0 1 76.37 50.13Zm-13 4.57A2.71 2.71 0 0 0 66 52.88h6.77a3.76 3.76 0 0 0 3.57 2.76A3.7 3.7 0 1 0 72.74 51H66a2.71 2.71 0 0 0-2.57-1.82 2.78 2.78 0 0 0-2.76 2.76A2.73 2.73 0 0 0 63.4 54.7Z" fill="#facc15" data-fill-palette-color="accent"></path><rect x="40.48" y="39.98" width="18.04" height="23.93" rx="3.95" ry="3.95" fill="#facc15" data-fill-palette-color="accent"></rect><path d="M40.48 24.45a1.82 1.82 0 1 1-1.82 1.82A1.86 1.86 0 0 1 40.48 24.45Zm0 5.58A3.7 3.7 0 0 0 44 27.33h6.26c0.69 0 1.31 0 1.57 0.25s0.31 0.44 0.31 1.25c0 1.13 0 2.63-0.06 3.82a2.76 2.76 0 1 0 3.76 2.57 2.76 2.76 0 0 0-1.94-2.63c0-1.19 0.06-2.63 0.06-3.76a3.32 3.32 0 0 0-0.82-2.57 3.69 3.69 0 0 0-2.88-0.75h-6.2A3.71 3.71 0 1 0 40.48 30Z" fill="#facc15" data-fill-palette-color="accent"></path><path d="M35 76.18a1.82 1.82 0 1 1-1.82-1.82A1.78 1.78 0 0 1 35 76.18ZM45.8 66A2.71 2.71 0 0 0 43.3 67.6h-7c-1.31 0-4.07 0-4.07 3.7v1.25a3.68 3.68 0 0 0 0.88 7.27 3.74 3.74 0 0 0 3.7-3.7 3.7 3.7 0 0 0-2.69-3.57c0-0.37-0.06-0.82-0.06-1.25 0-1.69 0.56-1.82 2.19-1.82h6.83a2.69 2.69 0 0 0 2.63 2 2.78 2.78 0 0 0 2.76-2.76A2.69 2.69 0 0 0 45.8 66Z" fill="#facc15" data-fill-palette-color="accent"></path><path d="M62.71 78a1.82 1.82 0 0 1-1.82-1.82 1.87 1.87 0 0 1 1.82-1.88 1.82 1.82 0 0 1 1.82 1.82A1.87 1.87 0 0 1 62.71 78Zm0.88-5.45V71.29c0-3.7-2.76-3.7-4.07-3.7H55.7A2.67 2.67 0 0 0 53.2 66a2.76 2.76 0 1 0 2.63 3.51h3.7c1.63 0 2.19 0.12 2.19 1.82a8.09 8.09 0 0 1-0.06 1.25 3.7 3.7 0 1 0 4.7 3.57A3.57 3.57 0 0 0 63.59 72.55Z" fill="#facc15" data-fill-palette-color="accent"></path></g></svg></g></svg></g></svg></g><defs></defs></svg><rect width="395.52" height="116.34637177477565" fill="none" stroke="none" visibility="hidden"></rect></g></svg></g></svg>